<?xml version="1.0" encoding="UTF-8"?><svg id="Layer_2" xmlns="http://www.w3.org/2000/svg" viewBox="0 0 257.53 79.2"><defs><style>.cls-1{fill:#13c536;stroke-width:0px;}</style></defs><g id="Layer_1-2"><path class="cls-1" d="m257.53,32.36c-.12.53-.22,1.07-.35,1.59-.76,3.03-2.58,5.33-5.04,7.16-3.09,2.3-6.62,3.6-10.35,4.41-.85.18-1.71.3-2.57.44-.48.08-.52-.11-.53-.5,0-1.96.07-3.92-.07-5.88-.33-4.6-2.03-8.58-5.36-11.83-.34-.33-.67-.65-1.01-.98-.11-.11-.24-.24-.18-.39.08-.19.29-.13.45-.12,1.39.1,2.78.13,4.16-.14,2.23-.43,3.99-1.46,4.68-3.78.36-1.2.23-2.43.03-3.63-.63-3.78-2-7.34-3.41-10.88-.8-2.02-1.7-4-2.6-5.97-.44-.97-.35-1.29.54-1.85h.7c.41.25.77.55,1.08.93,2.5,3.08,5.02,6.15,7.53,9.22,3.15,3.87,6.33,7.71,9.11,11.86,1.14,1.71,2.27,3.44,2.75,5.48.18.77.3,1.56.45,2.34v2.51Z"/><path class="cls-1" d="m21.65,0c.89.57.98.89.54,1.86-2,4.34-3.87,8.74-5.21,13.34-.49,1.67-.87,3.36-.97,5.11-.18,3.09,1.61,5.07,4.39,5.72,1.45.34,2.92.35,4.4.26.07,0,.13-.02.2-.02.18,0,.41-.1.5.11.08.19-.12.33-.24.46-.23.24-.48.47-.72.7-2.01,1.89-3.51,4.11-4.47,6.7-.86,2.32-1.18,4.73-1.19,7.19,0,1.37,0,2.75,0,4.12,0,.3-.03.47-.42.41-4.38-.58-8.53-1.83-12.25-4.3-2.65-1.76-4.75-4.01-5.65-7.13C-.51,30.9-.01,27.42,1.89,24.15c1.81-3.1,3.98-5.96,6.22-8.75,3.92-4.88,7.89-9.72,11.84-14.58.28-.34.64-.57.99-.82h.7Z"/><path class="cls-1" d="m49.06,55.33c-4.68,0-9.35,0-14.03-.01-.45,0-.6.11-.59.58.03,1.56.03,3.11,0,4.67-.02,2.03.74,3.71,2.22,5.08,1.83,1.69,4.05,2.62,6.48,2.95,3.97.55,7.53-.52,10.65-3.02.58-.46,1.07-1.02,1.45-1.66.18-.3.35-.31.64-.15,2.92,1.67,5.85,3.32,8.77,4.98.48.27.52.46.22.93-2,3.11-4.78,5.31-8.08,6.87-4.15,1.96-8.53,2.87-13.11,2.6-5.07-.29-9.79-1.72-13.86-4.86-4.29-3.31-6.5-7.71-6.55-13.12-.06-6.35-.05-12.69,0-19.04.04-5.77,2.53-10.31,7.18-13.66,3.37-2.43,7.19-3.74,11.29-4.28,5.29-.7,10.32.17,15.01,2.71,4.5,2.44,7.56,6.06,8.79,11.1.32,1.29.48,2.6.48,3.93,0,3.47,0,6.93,0,10.4,0,1.81-1.12,2.95-2.93,2.98-.85.02-1.71,0-2.56,0-3.82,0-7.64,0-11.47,0Zm-4.43-9.33c3.22,0,6.43,0,9.65,0,.68,0,.78-.1.78-.79,0-.89-.02-1.77,0-2.66.06-2.34-.96-4.13-2.83-5.46-2.05-1.47-4.39-2.1-6.89-2.14-2.88-.05-5.59.57-7.99,2.22-1.94,1.33-2.98,3.16-2.91,5.56.03.92.03,1.84,0,2.76-.02.43.13.52.54.52,3.22-.02,6.43,0,9.65,0Z"/><path class="cls-1" d="m235.02,51.62c0,3.32.08,6.63-.02,9.94-.14,4.81-2.24,8.71-5.91,11.78-3.12,2.6-6.76,4.11-10.7,4.91-5.74,1.18-11.3.49-16.63-1.89-3.78-1.68-6.9-4.16-8.95-7.83-1.3-2.33-1.92-4.85-1.94-7.5-.03-6.3-.07-12.59,0-18.89.07-5.77,2.78-10.15,7.46-13.38,3.4-2.34,7.21-3.65,11.28-4.17,6.49-.84,12.5.53,17.94,4.15,3.75,2.5,6.27,5.93,7.18,10.43.24,1.17.31,2.35.32,3.54,0,2.96,0,5.93,0,8.89-.01,0-.02,0-.04,0Zm-33.11-.48c0,2.76.04,5.53-.01,8.29-.04,2.14.79,3.86,2.42,5.16,3.14,2.5,6.75,3.49,10.73,2.89,2.54-.38,4.86-1.36,6.8-3.11,1.38-1.25,2.18-2.77,2.18-4.67,0-5.69,0-11.39,0-17.08,0-1.59-.57-2.93-1.67-4.06-.67-.69-1.45-1.24-2.3-1.68-3.07-1.57-6.31-2.08-9.7-1.48-2.16.38-4.21,1.08-5.98,2.44-1.64,1.27-2.51,2.89-2.47,5.01.05,2.76.01,5.53.01,8.29Z"/><path class="cls-1" d="m157.87,51.6c0,3.3.08,6.6-.02,9.89-.15,5.17-2.49,9.26-6.57,12.37-3.58,2.72-7.68,4.16-12.11,4.73-5.42.69-10.58-.24-15.46-2.64-4.01-1.98-7.14-4.88-8.87-9.1-.75-1.85-1.12-3.79-1.13-5.78-.02-6.31-.07-12.63.01-18.94.07-5.73,2.77-10.09,7.4-13.31,3.41-2.37,7.23-3.67,11.32-4.21,6.16-.81,11.9.42,17.18,3.64,3.86,2.35,6.59,5.63,7.76,10.08.38,1.43.5,2.9.5,4.38,0,2.96,0,5.93,0,8.89,0,0-.02,0-.02,0Zm-33.12-.43c0,2.81.02,5.63,0,8.44-.02,1.76.62,3.23,1.84,4.46,1.31,1.33,2.91,2.19,4.65,2.78,4.62,1.57,8.92.87,12.85-1.97,1.69-1.22,2.77-2.87,2.77-5.04.01-5.78,0-11.55,0-17.33,0-1.32-.44-2.49-1.28-3.51-.79-.96-1.78-1.67-2.89-2.21-3.02-1.49-6.2-1.97-9.52-1.38-1.99.35-3.89.98-5.57,2.16-1.89,1.32-2.92,3.04-2.86,5.42.07,2.73.02,5.46.02,8.19Z"/><path class="cls-1" d="m84.39,57.33c0-6.93,0-13.87.01-20.8,0-.49-.14-.56-.59-.53-4.14.28-8.22.89-12.24,1.9-.54.14-.48-.2-.52-.48-.35-2.01-.95-3.93-2.04-5.67-.59-.94-1.31-1.78-2.15-2.51-.18-.16-.35-.31-.28-.59.07-.26.29-.31.49-.37,4.82-1.3,9.69-2.34,14.68-2.77,4.79-.41,9.58-.43,14.37-.15,5.12.3,10.13,1.22,15.08,2.53.53.14,1.07.27,1.6.44.49.15.59.54.2.85-2.7,2.15-4.01,5.08-4.72,8.34-.09.39-.19.47-.58.38-3.89-.98-7.84-1.6-11.84-1.89-.51-.04-.44.22-.44.53,0,10.67,0,21.34,0,32,0,3.2,0,6.4,0,9.6,0,.45-.11.6-.59.6-3.27-.02-6.54-.02-9.81,0-.5,0-.65-.12-.65-.64.02-6.92.01-13.83.01-20.75Z"/><path class="cls-1" d="m164.69,59.89c0-5.59.05-11.19-.01-16.78-.08-6.74,2.99-11.64,8.63-15.06,3.67-2.23,7.71-3.33,11.99-3.65,1.94-.15,3.85.04,5.76.29.25.03.52.04.6.35.08.29-.03.54-.23.73-.37.34-.76.66-1.14.99-2.64,2.28-4.76,4.94-5.79,8.34-.09.29-.29.32-.52.38-2.1.5-4.09,1.27-5.81,2.61-1.6,1.24-2.45,2.8-2.45,4.91.04,11.71.02,23.41.02,35.12q0,.72-.71.72c-3.24,0-6.47-.01-9.71.01-.51,0-.65-.15-.65-.66.02-6.1.01-12.19.01-18.29Z"/></g></svg>