<?xml version="1.0" encoding="UTF-8"?><svg id="Layer_2" xmlns="http://www.w3.org/2000/svg" viewBox="0 0 210.82 61.2"><defs><style>.cls-1{stroke-width:0px;}</style></defs><g id="Layer_1-2"><path class="cls-1" d="m42.62,44.7V12.02h-4.32c-.02-.13-.05-.27-.07-.4.26-.11.51-.31.77-.31,5.45.07,10.9.05,16.35.3,2.43.11,4.73,1.01,6.62,2.67,2.94,2.58,3.58,8.77-1.67,11.53-1.25.66-2.6,1.1-4.19,1.76.69.19,1.18.32,1.68.45,2.44.66,4.76,1.51,6.38,3.64,2.31,3.04,2,10.09-3.32,12.35-2.5,1.06-5.11,1.44-7.78,1.46-4.58.03-9.16,0-13.74,0-.16,0-.35.04-.47-.02-.2-.11-.37-.29-.55-.44.18-.1.36-.3.55-.3,1.22-.03,2.45-.01,3.78-.01Zm4.86-16.84v16.8c1.96,0,3.83.12,5.68-.03,3.59-.29,5.67-1.85,6.3-4.92.37-1.79.48-3.72.28-5.53-.4-3.53-2.12-5.33-5.51-5.87-2.18-.35-4.42-.31-6.74-.45Zm-.03-.46c2.56-.25,5.05-.33,7.48-.77,2.23-.4,3.7-1.95,3.96-4.21.21-1.85.16-3.77-.04-5.63-.19-1.76-1.34-3.04-2.97-3.76-2.7-1.19-5.55-1.06-8.44-.96v15.32Z"/><path class="cls-1" d="m131.94,28.28c2.22,3.39,4.53,6.93,6.91,10.57,2.34-2.99,3.16-6.23,3.02-9.92-1.18,0-2.28.02-3.38-.02-.24,0-.48-.24-.72-.37.25-.17.49-.49.74-.5,2.47-.04,4.94-.03,7.41,0,.28,0,.56.29.84.44-.05.14-.1.27-.15.41h-3.59c-.19,1.59-.15,3.15-.58,4.55-.59,1.91-1.5,3.72-2.38,5.53-.29.61-.44,1.06.03,1.6.21.24.4.51.53.79,1.14,2.39,2.69,4.05,5.67,3.36.09-.02.22.07.68.24-.51.25-.78.49-1.05.49-2.11.03-4.23.05-6.34-.01-.4-.01-.89-.31-1.17-.62-.52-.59-.93-1.28-1.44-2.01-.57.4-1.1.78-1.65,1.15-2.92,1.99-6.15,2.49-9.55,1.78-3.01-.63-5.14-2.41-5.8-5.46-.71-3.29.2-6.17,2.99-8.23,1.52-1.12,3.17-2.08,4.9-3.21-.48-.77-1.02-1.58-1.5-2.43-.51-.89-1.08-1.77-1.43-2.72-.74-2.04.03-4.16,1.91-5.24,2.77-1.6,5.7-1.71,8.6-.45,2.91,1.26,3.61,4.82,1.31,6.99-1.35,1.27-3.09,2.14-4.82,3.29Zm4.42,13.55c-2.11-3.21-4.2-6.39-6.29-9.55-1.86-2.81-1.97-2.83-4.72-.78-1.98,1.47-2.56,2.96-1.76,5.28.53,1.52,1.22,3.02,2.11,4.35.7,1.05,1.69,2.04,2.77,2.7,2.41,1.48,5.21.71,7.89-2Zm-1.12-19.79c-.06-.55-.05-1.11-.2-1.64-.5-1.76-1.8-2.41-4.29-2.2-2.64.22-3.66,1.97-2.41,4.28.81,1.49,1.74,2.92,2.7,4.32.17.24.83.38,1.14.26,2.24-.9,3.03-2.73,3.06-5.02Z"/><path class="cls-1" d="m18.32,34.85c-.1-.77-.18-1.55-.29-2.32-.32-2.22-1.45-3.49-3.63-3.78-1.45-.2-2.94-.18-4.41-.18-.26,0-.74.4-.74.62-.04,5.12-.03,10.23-.03,15.52h4.7c.04.11.07.23.11.34-.2.14-.41.39-.61.39-4.38,0-8.76-.02-13.14-.05-.06,0-.11-.1-.27-.25.56-.82,1.42-.36,2.09-.44.75-.08,1.51-.02,2.37-.02V12.03H.11c-.03-.15-.06-.3-.09-.45.31-.1.62-.28.94-.28,2.35-.02,4.7-.01,7.05-.01,4.98,0,9.96,0,14.94,0,.43,0,.86,0,1.4,0,.21,3.29.42,6.5.62,9.7-.13.03-.27.06-.4.08-.12-.41-.26-.81-.35-1.22-.56-2.46-1.2-4.86-3.47-6.42-1.62-1.11-3.49-1.29-5.35-1.38-1.75-.09-3.51,0-5.26-.03-.55,0-.94.08-.93.75.01,4.81.01,9.62.03,14.43,0,.15.09.29.21.64,1.98-.11,4.02-.07,6-.38,1.84-.29,2.24-1.95,2.54-3.5.17-.91.22-1.85.57-2.77v13.65c-.08,0-.16.01-.24.02Z"/><path class="cls-1" d="m104.33,36.17c0,2.69,0,5.37,0,8.06,0,.38-.03.76-.05,1.15-.11.06-.21.13-.32.19-.64-.82-1.28-1.65-1.92-2.47-1.33.69-2.6,1.52-3.99,2.05-5.24,1.98-9.89.74-13.8-3.05-7.08-6.84-6.97-20.41.02-27.36,4.51-4.48,11.76-5.49,16.95-1.53.25.19.52.34.8.52.63-.82,1.22-1.6,1.82-2.37.04-.06.22,0,.42,0v8.64c-.07.04-.13.09-.2.13-.19-.3-.43-.58-.55-.91-.71-1.96-1.66-3.76-3.23-5.19-3.63-3.31-9.93-3.15-13.13.43-1.64,1.84-2.11,4.18-2.16,6.52-.11,5.15-.14,10.31-.03,15.47.1,4.46,2.19,7.19,6,8.28,3.81,1.1,8.02-.35,10.29-3.68.9-1.33,1.51-2.86,2.26-4.3.13-.25.3-.47.45-.71.13.04.26.08.39.12Z"/><path class="cls-1" d="m182.9,13.73c.68-.89,1.31-1.72,1.94-2.55.09.06.19.12.28.18v8.65c-.1.03-.21.06-.31.09-.28-.7-.56-1.39-.84-2.09-2.83-7.01-10.52-7.62-14.6-4.8-2.09,1.44-3,3.61-3.28,5.99-.7,6.13-.79,12.27-.1,18.41.37,3.32,1.97,5.72,5.18,6.89,3.34,1.21,6.41.62,9.19-1.54,1.92-1.49,2.94-3.59,3.87-5.75.17-.4.39-.77.59-1.15.1.03.19.06.29.09v9.17c-.08.07-.16.15-.24.22-.63-.81-1.26-1.62-1.94-2.5-1.08.61-2.14,1.31-3.28,1.81-5.99,2.64-12.53.61-16.39-5.02-5.11-7.44-4.45-18.21,1.66-24.81,4.42-4.77,11.63-5.88,17.09-1.94.28.2.57.41.9.64Z"/><path class="cls-1" d="m210.82,35.68c0,5.54-4.13,10.4-10.03,10.35-5.91-.05-10.05-5.06-9.88-10.89.15-5.58,4.8-10.13,10.3-10,5.39.13,9.72,4.88,9.61,10.54Zm-15.14-.24s0,0,.01,0c0,1.63-.08,3.26.02,4.88.19,3.18,2.04,4.86,5.16,4.81,3.19-.06,5.02-1.71,5.11-4.87.09-3.12.06-6.25,0-9.38-.05-2.69-1.46-4.36-4.09-4.73-2.89-.4-6.18.61-6.21,5,0,1.43,0,2.86,0,4.29Z"/><path class="cls-1" d="m31.32,61.19c-.22-.2-.5-.36-.64-.6-.1-.18-.03-.47-.03-.7,0-19.51,0-39.01,0-58.52,0-.39,0-.78,0-1.17.1-.06.19-.13.29-.19.21.2.47.37.63.6.09.14.02.39.02.59,0,19.55,0,39.09,0,58.64,0,.39,0,.78,0,1.17-.09.06-.18.13-.27.19Z"/><path class="cls-1" d="m71.35,61.04c0-7.71,0-15.3,0-22.88,0-12.23,0-24.47,0-36.7,0-.28-.06-.57.02-.83.06-.21.29-.36.44-.54.17.16.42.3.49.49.09.25.03.55.03.83,0,19.46,0,38.92-.01,58.38,0,.55.34,1.47-.98,1.24Z"/><path class="cls-1" d="m113.16.17v1.19c0,19.52,0,39.03,0,58.55,0,.52.3,1.38-.95,1.11,0-.41,0-.8,0-1.19,0-19.52,0-39.03,0-58.55,0-.52-.31-1.39.95-1.11Z"/><path class="cls-1" d="m153.67,61.2c-.21-.27-.53-.52-.6-.82-.1-.45-.03-.95-.03-1.42,0-19.12,0-38.24.02-57.36,0-.5.35-1.45.44-1.44,1,.14.51.97.51,1.48.03,19.4.03,38.79.03,58.19,0,.39,0,.78,0,1.17-.12.06-.24.13-.36.19Z"/></g></svg>