<?xml version="1.0" encoding="UTF-8"?><svg id="Layer_2" xmlns="http://www.w3.org/2000/svg" viewBox="0 0 119.37 120.47"><defs><style>.cls-1{fill:#95c574;}.cls-1,.cls-2{stroke-width:0px;}.cls-2{fill:#fefefe;}</style></defs><g id="Layer_1-2"><path class="cls-1" d="m56.78,120.47c-.11-.14-.27-.09-.41-.1-2.99-.1-5.92-.59-8.84-1.17-3.59-.71-7.07-1.77-10.43-3.18-3.1-1.3-6.08-2.83-8.92-4.64-2.09-1.33-4.1-2.77-6.03-4.32-1.18-.95-2.29-1.99-3.41-3.02-1.64-1.5-3.12-3.14-4.55-4.83-2.24-2.65-4.2-5.5-5.96-8.49-2.05-3.48-3.7-7.15-5-10.97-1.01-2.95-1.76-5.97-2.29-9.04-.31-1.8-.51-3.61-.7-5.43-.27-2.69-.27-5.39-.17-8.08.1-2.66.43-5.31.91-7.94.78-4.32,2.05-8.48,3.74-12.52,1.2-2.89,2.64-5.66,4.29-8.32,1.48-2.39,3.11-4.67,4.9-6.84,1.6-1.94,3.3-3.79,5.15-5.49,2.64-2.42,5.42-4.68,8.46-6.61,2.21-1.41,4.5-2.67,6.87-3.8,3.32-1.59,6.76-2.85,10.32-3.77,2.82-.73,5.68-1.25,8.59-1.57C56.37-.02,59.47-.06,62.57.06c3.53.13,7.02.62,10.46,1.46,3.28.79,6.5,1.78,9.62,3.07,2.23.92,4.37,2.03,6.47,3.22,2.39,1.36,4.69,2.88,6.86,4.59,1.49,1.18,2.94,2.4,4.34,3.69,1.15,1.06,2.23,2.17,3.29,3.32,1.57,1.71,3.03,3.51,4.39,5.39,2.24,3.1,4.17,6.39,5.8,9.85,1.35,2.88,2.45,5.86,3.3,8.93.52,1.87.98,3.75,1.35,5.65.37,1.92.62,3.85.76,5.81.04.57-.01,1.17.19,1.72v8.06c-.13.06-.1.18-.11.28-.2,1.71-.36,3.41-.65,5.11-.9,5.38-2.49,10.53-4.79,15.47-3.32,7.13-7.85,13.39-13.6,18.77-3.74,3.5-7.86,6.46-12.36,8.89-3.69,1.99-7.55,3.57-11.57,4.75-3.72,1.09-7.51,1.78-11.36,2.17-.58.06-1.2-.08-1.76.19h-6.4Zm60.54-60.92c.04-1.14-.09-3.03-.29-4.91-.21-1.91-.48-3.8-.83-5.69-.48-2.54-1.13-5.04-1.95-7.49-1.22-3.63-2.84-7.09-4.75-10.42-1.59-2.78-3.4-5.41-5.44-7.88-1.51-1.82-3.1-3.56-4.84-5.18-1.6-1.49-3.23-2.92-4.98-4.23-2.14-1.61-4.38-3.08-6.72-4.4-2.84-1.6-5.8-2.94-8.87-4.04-2.96-1.06-6-1.82-9.1-2.36-2.43-.42-4.88-.72-7.34-.84-2.47-.11-4.95-.05-7.42.18-2.25.21-4.49.5-6.69.96-5.84,1.22-11.35,3.3-16.54,6.25-3.04,1.73-5.91,3.7-8.58,5.94-1.72,1.44-3.38,2.96-4.91,4.63-1.3,1.42-2.58,2.84-3.75,4.37-3.31,4.33-6,9.02-8.05,14.08-2.37,5.86-3.73,11.94-4.11,18.23-.2,3.33-.14,6.67.29,10,.33,2.58.77,5.13,1.42,7.64,1.42,5.45,3.46,10.65,6.33,15.51,2.16,3.66,4.71,7.03,7.59,10.14,2.17,2.34,4.53,4.47,7.06,6.42,2.79,2.16,5.76,4.03,8.88,5.66,2.07,1.07,4.21,1.99,6.41,2.79,2.03.74,4.08,1.37,6.18,1.87,2.11.5,4.25.89,6.41,1.15,1.71.21,3.42.35,5.13.39,1.56.04,3.12.03,4.68-.05,1.83-.1,3.66-.24,5.46-.51,4.19-.62,8.24-1.76,12.19-3.26,6.98-2.65,13.16-6.59,18.61-11.67,5.47-5.1,9.77-11.06,12.96-17.82,3.7-7.83,5.5-16.08,5.54-25.48Z"/><path class="cls-1" d="m59.75,113.54c-12.03-.11-22.86-3.75-32.35-11.17-8.5-6.65-14.42-15.15-17.84-25.39-1.23-3.69-1.97-7.48-2.37-11.35-.25-2.38-.39-4.77-.29-7.16.19-4.5.83-8.94,2.12-13.28,2.08-6.96,5.36-13.27,9.97-18.89,2.58-3.15,5.48-5.97,8.71-8.46,3.11-2.4,6.46-4.42,10.02-6.08,3.86-1.8,7.88-3.09,12.06-3.91,1.88-.37,3.77-.6,5.68-.75,2.16-.17,4.32-.23,6.48-.12,3.73.19,7.42.68,11.04,1.65,4.04,1.08,7.93,2.56,11.61,4.56,2.98,1.62,5.79,3.49,8.41,5.64,1.84,1.51,3.6,3.12,5.21,4.88,2.69,2.93,5.06,6.1,7.07,9.54,2.32,3.99,4.13,8.18,5.33,12.64.49,1.84.96,3.69,1.25,5.58.16,1.04.28,2.09.39,3.14.24,2.26.36,4.53.29,6.79-.08,2.33-.24,4.64-.6,6.96-.64,4.11-1.73,8.07-3.26,11.92-.89,2.22-1.96,4.36-3.14,6.45-1.26,2.23-2.69,4.35-4.26,6.38-.92,1.18-1.9,2.3-2.9,3.42-2.91,3.23-6.21,6-9.83,8.38-3.81,2.51-7.89,4.48-12.22,5.93-3.81,1.27-7.71,2.09-11.71,2.47-1.61.15-3.22.22-4.84.23Zm-.16-2.25c.99-.03,1.98,0,2.97-.06,2.01-.13,4.02-.35,6-.69,4.4-.76,8.59-2.22,12.63-4.09,1.72-.8,3.37-1.74,4.99-2.75,3.11-1.94,5.97-4.2,8.63-6.73.97-.92,1.83-1.94,2.73-2.94,1.28-1.42,2.44-2.94,3.54-4.51,1.99-2.86,3.69-5.88,5.06-9.09.98-2.3,1.81-4.66,2.45-7.08.62-2.35,1.08-4.72,1.33-7.14.19-1.8.38-3.59.41-5.39.04-2.12-.15-4.23-.41-6.34-.16-1.28-.32-2.56-.55-3.82-.31-1.71-.72-3.4-1.21-5.07-.45-1.56-.98-3.09-1.59-4.6-1.06-2.63-2.37-5.14-3.83-7.56-1.79-2.97-3.89-5.69-6.26-8.21-.97-1.03-1.98-2.01-3.03-2.96-1.7-1.53-3.48-2.94-5.35-4.24-2.78-1.93-5.74-3.53-8.85-4.86-1.67-.71-3.38-1.35-5.12-1.85-2.37-.69-4.78-1.22-7.22-1.58-1.7-.25-3.41-.43-5.12-.5-1.7-.07-3.4-.02-5.11.07-2.26.13-4.49.42-6.71.83-2.41.44-4.77,1.12-7.08,1.96-3.66,1.33-7.13,3.03-10.4,5.14-3.41,2.2-6.52,4.75-9.28,7.72-1.13,1.21-2.23,2.44-3.24,3.74-3.88,5.03-6.78,10.58-8.66,16.66-1.23,3.97-1.9,8.04-2.17,12.17-.15,2.34-.13,4.7.1,7.04.22,2.21.56,4.42,1.04,6.6.78,3.52,1.9,6.92,3.37,10.21,2.02,4.52,4.67,8.63,7.91,12.38,2.98,3.45,6.35,6.48,10.13,9.02,5.14,3.46,10.72,5.93,16.77,7.31,2.35.54,4.73.93,7.13,1.13,1.33.11,2.67.2,4.01.12Z"/><path class="cls-1" d="m61.04,97.41c-8.6.08-16.67-1.78-24.45-5.04-2.03-.85-4.05-1.75-6.06-2.64-.31-.14-.56-.13-.88,0-3.43,1.46-7.52-.65-8.26-4.25-.19-.95.09-1.6.91-2.1,5.57-3.39,11.43-6.21,17.48-8.62.54-.21.71-.51.75-1.03.21-3.04.43-6.08.66-9.12.04-.55-.2-.82-.7-1.01-3.71-1.4-7.21-3.22-10.52-5.4-3.22-2.12-6.08-4.63-8.43-7.7-1.28-1.67-1.85-3.46-.97-5.5.47-1.08,1.28-1.84,2.31-2.35,2.41-1.2,4.91-2.16,7.5-2.88.11-.03.21-.06.32-.09.81-.21,1.28-.54,1.42-1.55.5-3.57,3.52-6.4,6.96-6.76,3.66-.38,7.02,1.62,8.42,5.03.17.42.31.86.44,1.3.07.25.21.36.46.38,1.85.17,3.66.57,5.46,1.05.44.12.56.06.45-.42-.67-2.81-.98-5.67-1.1-8.56-.05-1.27.13-2.53-.02-3.79-.03-.25.11-.5.25-.72,1.61-2.52,4.6-3.42,7.34-2.23,1.06.46,2,1.11,2.85,1.86.39.34.81.46,1.28.54,4.92.81,9.19,3.01,13.02,6.11,5.82,4.7,10.01,10.67,13.25,17.34,2.39,4.92,4.06,10.08,4.97,15.48.39,2.32.64,4.66.6,7.02-.01.67.38,1.26.36,1.93,0,.09.07.16.17.19.07.02.14.03.21.05-.07,0-.15,0-.22.02-.3.08-.19.33-.18.5.07,2.29-.48,4.45-1.36,6.53-1.44,3.4-3.71,6.16-6.58,8.43-4.18,3.31-9.01,5.2-14.14,6.41-3.35.79-6.75,1.24-10.18,1.47-1.3.09-2.61.08-3.78.1Zm6.35-68.71c-.02.21.07.28.14.36.77.89,1.56,1.76,2.32,2.66,1.59,1.88,3.1,3.83,4.56,5.82.21.29.38.59.3.97-.1.48-.39.8-.86.91-.56.13-.94-.15-1.26-.58-2.63-3.59-5.4-7.07-8.59-10.2-1.25-1.23-2.54-2.41-4.15-3.16-1.32-.62-2.57-.43-3.73.44-.25.19-.28.31,0,.54.79.66,1.57,1.34,2.3,2.06,4.13,4.04,7.68,8.56,10.8,13.42,3.05,4.76,5.64,9.73,7.22,15.18,1.15,3.97,1.9,7.99,1.09,12.16-.09.46-.21.55-.63.54-4.47-.1-8.92.15-13.36.74-4.67.62-9.26,1.59-13.78,2.89-7.71,2.22-15.05,5.34-22.04,9.28-1.3.73-2.57,1.5-3.85,2.27-.15.09-.38.12-.28.44.71,2.21,3.46,3.31,5.52,2.22,4.2-2.23,8.42-4.44,12.8-6.32,4.87-2.09,9.88-3.77,15.03-5.04.87-.21,1.53.39,1.37,1.25-.1.55-.52.76-1.01.88-2.26.56-4.5,1.21-6.72,1.94-6.14,2-11.96,4.71-17.65,7.73-.09.05-.22.06-.19.22,2.56,1.06,5.12,2.13,7.68,3.18,5.73,2.36,11.71,3.59,17.9,3.79,3.24.11,6.47-.02,9.69-.4,3.86-.45,7.66-1.18,11.33-2.47,4.47-1.57,8.54-3.78,11.66-7.45,2.71-3.18,4.2-6.83,3.96-11.08-.01-.18.01-.37-.12-.53-.29-.35-.32-.76-.31-1.2.04-3.4-.42-6.74-1.19-10.04-1.65-7.06-4.52-13.58-8.67-19.53-3.55-5.08-7.81-9.42-13.39-12.31-1.24-.64-2.52-1.19-3.9-1.57Zm7.59,31.72c-.03-.22-.03-.29-.05-.36-.61-2.74-1.59-5.34-2.65-7.93-.47-1.14-1.12-2.03-2.19-2.64-.41-.23-.79-.54-1.18-.81-3.76-2.61-7.7-4.87-12.07-6.33-3.21-1.08-6.49-1.85-9.87-2.22-.71-.08-.93-.35-1.05-1.04-.48-2.73-2.04-4.96-5.1-5.45-3.64-.58-7.05,2.65-6.62,6.23.07.56-.14,1.01-.66,1.28-.28.15-.58.21-.89.29-2.99.72-5.87,1.76-8.64,3.11-1.8.88-2.2,2.38-1.12,4.05.16.25.33.49.5.73,2.09,2.79,4.7,5,7.57,6.93,3.58,2.4,7.4,4.3,11.45,5.74.79.28,1.07.62,1.05,1.41-.01.77-.04,1.54-.12,2.31-.26,2.43-.41,4.87-.6,7.3-.05.62-.03.62.54.41,3.1-1.15,6.26-2.11,9.45-3.01,1.17-.33,2.37-.58,3.65-.88-.35-.32-.64-.57-.92-.82-1.62-1.43-3.12-2.96-4.29-4.79-1.05-1.64-1.8-3.37-1.76-5.36.06-2.64,2.14-5.24,4.74-5.86,2.2-.52,4.42-.33,6.62.05,3.94.67,7.44,2.35,10.64,4.69,1.21.89,2.35,1.88,3.58,2.99Zm.66,5.5c0-.2-.02-.41,0-.61.1-.76-.22-1.32-.76-1.85-1.06-1.05-2.11-2.1-3.26-3.05-4.54-3.75-9.59-6-15.64-5.8-2.48.08-5.17,2.25-4.13,5.71.36,1.19.97,2.26,1.72,3.25,1.49,1.96,3.26,3.63,5.25,5.08.33.24.64.31,1.02.24,5.05-.91,10.15-1.36,15.28-1.4.36,0,.55-.08.52-.48-.03-.37,0-.73,0-1.1Zm-6.56-19.9c-3.73-6.4-8.13-12.25-13.62-17.28-.15.23-.1.4-.1.56.05,1.04.1,2.09.18,3.13.18,2.44.6,4.84,1.26,7.2.09.33.26.51.6.62,2.65.9,5.2,2.02,7.65,3.38,1.36.76,2.7,1.56,4.03,2.39Zm-1.87-17.32l.02-.02h-.03s.01.02.01.02Z"/><path class="cls-1" d="m59.48,14.25c5-.02,9.83.73,14.53,2.33.74.25,1.02.56.99,1.13-.03.5-.29.85-.77,1.03-.34.13-.66.02-.97-.09-1.65-.59-3.35-1-5.06-1.34-1.82-.36-3.66-.6-5.52-.74-1.6-.12-3.19-.16-4.79-.08-8.39.39-16.01,3.02-22.91,7.82-1.68,1.17-3.25,2.47-4.76,3.86-2.3,2.11-4.28,4.49-6.05,7.05-.62.9-1.64.94-2.06.07-.23-.46-.13-.91.15-1.3.88-1.2,1.77-2.41,2.73-3.55,1.09-1.29,2.27-2.5,3.47-3.68,2.54-2.48,5.39-4.56,8.45-6.35,4.33-2.54,8.96-4.32,13.88-5.31,1.87-.38,3.75-.62,5.66-.73,1.03-.06,2.05-.07,3.03-.11Z"/><polygon class="cls-2" points="67.22 28.69 67.2 28.67 67.24 28.67 67.22 28.69"/><path class="cls-1" d="m82.28,72.1c2.74.1,5.45.41,8.14.93.78.15,1.21.7,1.08,1.32-.14.69-.7,1-1.53.85-2.89-.54-5.8-.87-8.75-.9-.7,0-1.16-.49-1.15-1.14,0-.63.47-1.05,1.16-1.06.35,0,.7,0,1.05,0Z"/><path class="cls-1" d="m39.81,42.43c-1.32.18-2.66-1.28-2.61-2.54.07-1.52,1.13-2.65,2.64-2.65,1.48,0,2.55,1.13,2.61,2.62.05,1.22-1.14,2.73-2.64,2.57Z"/></g></svg>