<?xml version="1.0" encoding="UTF-8"?>
<svg id="Layer_2" data-name="Layer 2" xmlns="http://www.w3.org/2000/svg" viewBox="0 0 475.93 167.45">
  <defs>
    <style>
      .cls-1 {
        fill: #010101;
      }

      .cls-2 {
        fill: #447ec0;
      }
    </style>
  </defs>
  <g id="Layer_1-2" data-name="Layer 1">
    <g>
      <g>
        <path class="cls-1" d="M6.25,124.82c-1.67,0-3.13-.63-4.38-1.88-1.25-1.25-1.88-2.71-1.88-4.38V34.48c0-3.17,1.04-5.79,3.13-7.88,2.08-2.09,4.71-3.13,7.88-3.13H52.3c1.83,0,3.17,.59,4,1.75,.83,1.17,1.25,2.5,1.25,4,0,1.34-.5,2.5-1.5,3.5-1,1-2.25,1.5-3.75,1.5H20.77c-5.84,0-8.76,2.92-8.76,8.76v14.76c0,5.84,2.92,8.76,8.76,8.76h28.03c3.51,0,5.26,1.75,5.26,5.26,0,3.17-1.75,4.75-5.26,4.75H20.77c-5.84,0-8.76,2.92-8.76,8.76l.25,33.03c0,1.84-.54,3.38-1.63,4.63-1.08,1.25-2.54,1.88-4.38,1.88Z"/>
        <path class="cls-1" d="M93.84,124.82c-1.67,0-3-.59-4.01-1.75-1-1.16-1.5-2.5-1.5-4V35.23c0-4.34,1.13-7.38,3.38-9.13,2.25-1.75,5.3-2.63,9.13-2.63h25.28c8.34,0,15.59,2.46,21.77,7.38,6.17,4.92,9.26,11.81,9.26,20.65,0,7.5-1.97,13.8-5.88,18.89-3.93,5.09-8.8,8.38-14.64,9.88,2.5,.67,5.09,2.46,7.76,5.38,2.67,2.92,4.92,6.63,6.76,11.14l8.01,19.77c.33,1,.5,1.84,.5,2.5,0,1.67-.54,3.04-1.63,4.13-1.08,1.08-2.46,1.63-4.13,1.63-2.5,0-4.34-1.34-5.51-4l-9.26-22.27c-2.17-5.5-5.59-9.59-10.26-12.26-4.67-2.67-9.43-4-14.26-4h-6.25c-5.84,0-8.76,2.92-8.76,8.76l.5,28.03c0,1.5-.58,2.84-1.75,4-1.17,1.17-2.67,1.75-4.5,1.75Zm14.51-52.8h15.76c5.34,0,10.22-1.58,14.64-4.75,4.42-3.17,6.63-7.84,6.63-14.01,0-6.84-2.13-11.76-6.38-14.76-4.25-3-9.05-4.5-14.39-4.5h-16.26c-5.84,0-8.76,2.92-8.76,8.76v20.52c0,5.84,2.92,8.76,8.76,8.76Z"/>
        <path class="cls-1" d="M194.93,124.82c-1.67,0-3.05-.59-4.13-1.75-1.09-1.16-1.63-2.5-1.63-4V32.98c0-3.34,1-5.96,3-7.88,2-1.92,4.17-2.88,6.5-2.88,1.34,0,2.71,.34,4.13,1,1.41,.67,2.63,1.75,3.63,3.25l47.79,75.57c.83,1.34,1.67,2,2.5,2,1.34,0,2.01-1.08,2.01-3.25l-.25-72.82c0-1.5,.62-2.84,1.87-4,1.25-1.16,2.71-1.75,4.38-1.75s3.04,.59,4.13,1.75c1.08,1.17,1.63,2.5,1.63,4V114.06c0,3.34-1,5.97-3,7.88-2,1.92-4.17,2.88-6.5,2.88-1.34,0-2.72-.34-4.13-1-1.42-.67-2.63-1.75-3.63-3.25l-48.05-75.57c-.83-1.33-1.67-2-2.5-2-1.34,0-2,1.08-2,3.25l.5,72.82c0,1.5-.59,2.84-1.75,4-1.17,1.17-2.67,1.75-4.5,1.75Z"/>
        <path class="cls-1" d="M306.28,122.31c-2.67,0-4.8-.83-6.38-2.5-1.59-1.67-2.38-3.58-2.38-5.75s.75-4.26,2.26-6.26l51.79-66.56c1.34-1.5,2.01-2.92,2.01-4.26,0-2-1.84-3-5.51-3h-42.29c-1.84,0-3.21-.58-4.13-1.75-.92-1.16-1.38-2.33-1.38-3.5,0-1.33,.46-2.54,1.38-3.63,.92-1.08,2.29-1.63,4.13-1.63h54.8c3.5,0,6.13,.84,7.88,2.5,1.75,1.67,2.63,3.67,2.63,6.01,0,2.17-.84,4.34-2.5,6.51l-50.8,64.56c-1.67,1.84-2.5,3.59-2.5,5.25,0,2.17,2,3.25,6.01,3.25h49.3c2,0,3.46,.54,4.38,1.62,.92,1.09,1.38,2.3,1.38,3.63s-.46,2.59-1.38,3.75c-.92,1.17-2.37,1.75-4.38,1.75h-64.31Z"/>
        <path class="cls-1" d="M399.86,124.82c-1.67,0-3.17-.63-4.5-1.88-1.34-1.25-2-2.71-2-4.38,0-1.16,.41-2.33,1.25-3.5l26.53-34.78c2.5-3.17,3.75-6.01,3.75-8.51,0-2.16-1-4.5-3-7.01l-26.27-34.53c-.67-.83-1-1.83-1-3,0-1.83,.67-3.33,2.01-4.5,1.33-1.16,2.84-1.75,4.5-1.75,2.16,0,3.75,.75,4.75,2.25l23.27,33.03c1.84,2.67,3.67,4,5.51,4,1.67,0,3.51-1.33,5.51-4l23.52-33.03c1-1.33,2.42-2,4.26-2s3.41,.55,4.75,1.63c1.33,1.09,2,2.55,2,4.38,0,1.34-.34,2.42-1,3.25l-26.27,34.28c-1.17,1.5-2.05,2.79-2.63,3.88-.59,1.08-.88,2.21-.88,3.38,0,2.17,1.34,4.92,4.01,8.26l27.03,34.78c.67,.67,1,1.67,1,3,0,1.67-.58,3.17-1.75,4.51s-2.67,2-4.5,2c-2,0-3.51-.75-4.5-2.25l-25.02-34.28c-1.84-2.67-3.67-4-5.51-4-1.67,0-3.5,1.34-5.51,4l-24.77,34.28c-1.17,1.67-2.67,2.5-4.51,2.5Z"/>
      </g>
      <g>
        <g>
          <circle class="cls-1" cx="113.01" cy="144.59" r="5.24"/>
          <circle class="cls-1" cx="136.03" cy="144.59" r="5.24"/>
        </g>
        <circle class="cls-1" cx="124.52" cy="162.21" r="5.24"/>
      </g>
      <g>
        <circle class="cls-1" cx="229.32" cy="162.21" r="5.24"/>
        <circle class="cls-1" cx="229.32" cy="144.59" r="5.24"/>
      </g>
      <circle class="cls-1" cx="336.87" cy="144.59" r="5.24"/>
      <circle class="cls-2" cx="76.1" cy="5.24" r="5.24"/>
    </g>
  </g>
</svg>