<svg width="166" height="104" viewBox="0 0 166 104" fill="none" xmlns="http://www.w3.org/2000/svg">
<g clip-path="url(#clip0_403_15)">
<path d="M0 38.22C0.34 38.14 0.35 37.84 0.41 37.58C2.27 29.64 10.84 22.63 21.74 23.13C27.27 23.38 32.3 24.97 36.42 28.8C37.18 29.51 37.54 29.25 38.12 28.64C40.92 25.73 44.11 23.55 48.39 23.7C51.16 23.8 53.07 25.22 54.15 27.72C54.84 29.3 54.26 31.31 52.98 32.18C51.61 33.12 49.48 32.97 48.22 31.75C47.63 31.18 47.18 30.47 46.7 29.8C45.13 27.64 43.74 27.37 41.47 28.84C41.01 29.14 40.61 29.53 40.16 29.85C39.12 30.58 39.13 31.31 39.73 32.46C45.67 43.8 40.19 56.58 27.98 59.99C24.87 60.86 21.68 61.1399 18.47 61.2799C16.04 61.3799 13.61 61.54 11.23 62.09C9.99 62.38 8.78 62.7599 7.67 63.4199C6.35 64.2099 5.45 65.2699 5.63 66.9199C5.8 68.4599 6.94 69.17 8.24 69.61C11.09 70.58 14.08 70.82 17.06 71.02C23.4 71.46 29.77 71.63 36.01 73.02C43.71 74.74 48.68 80.7 48.91 88.37C49 91.19 48.03 93.67 46.64 96.03C45.03 98.77 42.94 101.12 40.53 103.18C38.78 104.68 37.68 104.87 36.82 103.88C35.91 102.84 36.26 101.94 38.21 100.44C41.86 97.63 43.1 93.89 42.41 89.45C41.83 85.76 39.6 83.48 36.12 82.25C31.41 80.59 26.5 80.2799 21.59 80.0299C17 79.7999 12.41 79.4799 7.97 78.2299C4.3 77.1899 1.4 75.17 0.67 71.15C0.00999999 67.52 1.27 64.53 4.3 62.34C6.36 60.85 8.75 60.1799 11.17 59.6199C11.33 59.0399 10.81 58.9799 10.53 58.7999C5.46 55.5799 1.63 51.4199 0.24 45.3799C0.22 45.2999 0.08 45.25 0 45.19C0 42.87 0 40.55 0 38.23V38.22ZM32.23 42.6399C32.29 40.2699 32.05 37.8 31.54 35.37C30.41 30.05 26.25 26.42 21.06 26.15C15.62 25.88 11.83 28.56 10.22 34.17C8.66 39.56 8.49 45.05 10.01 50.4799C11.43 55.55 15.66 58.69 20.77 58.7C25.63 58.7 29.84 55.41 31.32 50.44C32.06 47.93 32.29 45.3599 32.24 42.6399H32.23Z" fill="#2D78A0"/>
<path d="M149.2 20C149.31 20.1 149.41 20.27 149.54 20.3C158.56 22.24 163.84 27.94 165.59 36.77C167.15 44.64 166.19 52.19 160.97 58.71C153.93 67.51 141.47 68.98 132.48 62.15C131.74 61.59 131.03 61 130.3 60.42C129.77 60.87 130 61.4 130 61.86C129.98 69.43 129.97 76.99 130 84.56C130 86.49 130.14 88.42 130.31 90.34C130.51 92.69 132.13 93.79 135.62 93.88C136.74 93.91 137.23 94.18 137.14 95.38C137.08 96.16 136.83 96.44 136.05 96.44C129.24 96.42 122.43 96.42 115.62 96.44C114.63 96.44 114.59 95.92 114.59 95.19C114.59 94.46 114.61 93.9 115.62 93.94C116.89 93.99 118.16 94 119.42 93.69C121.34 93.22 122.4 92.14 122.62 90.2C122.74 89.16 122.76 88.11 122.76 87.06C122.76 69.78 122.76 52.49 122.76 35.21C122.76 31.64 126.28 29.04 129.75 30.02C130.67 30.28 130.3 31 130.31 31.51C130.34 39.24 130.36 46.97 130.3 54.7C130.29 56.09 130.72 57.11 131.67 58.07C134.71 61.15 138.1 63.46 142.65 63.48C149.09 63.5 154.47 59.27 155.59 52.91C156.72 46.46 156.74 39.9 155.72 33.45C154.41 25.11 145.26 20.85 137.34 24.59C134.99 25.7 132.81 27.09 130.82 28.82C129.94 25.59 130.28 24.82 133.14 23.33C135.92 21.86 138.88 20.87 141.89 20C144.32 20 146.76 20 149.2 20Z" fill="#2E78A0"/>
<path d="M55.31 25.35C58.17 25.35 60.98 25.38 63.78 25.33C64.83 25.31 64.72 25.94 64.76 26.63C64.81 27.44 64.61 27.85 63.68 27.83C62.58 27.81 61.46 27.83 60.37 28.02C57.84 28.45 56.33 31.14 57.38 33.38C61.92 43.02 65.18 53.16 69.12 63.03C69.52 64.03 69.91 65.05 70.46 66.48C71.22 64.58 71.82 63.09 72.41 61.58C75.85 52.75 79.27 43.91 82.72 35.08C83.31 33.57 83.25 32.03 82.91 30.53C82.54 28.86 81.23 28.16 79.64 27.92C78.88 27.8 78.1 27.65 77.34 27.67C76.32 27.69 76.21 27.17 76.2 26.33C76.2 25.44 76.54 25.22 77.38 25.22C84.13 25.25 90.89 25.26 97.64 25.22C98.72 25.22 98.72 25.74 98.76 26.54C98.8 27.45 98.44 27.69 97.6 27.63C96.38 27.55 95.16 27.7 93.98 27.99C91.91 28.5 90.58 30.91 91.32 32.89C95.38 43.73 99.46 54.55 103.54 65.38C103.63 65.62 103.75 65.84 104.01 66.44C105.24 63.39 106.35 60.67 107.45 57.94C110.45 50.53 113.45 43.13 116.45 35.72C116.64 35.26 116.79 34.79 116.97 34.33C118.45 30.67 117.98 28.93 113.12 28.36C111.77 28.2 111.56 27.74 111.54 26.55C111.52 25.13 112.44 25.44 113.21 25.44C117.75 25.43 122.29 25.44 126.83 25.44C127.62 25.44 128.45 25.31 128.31 26.56C128.21 27.46 128.71 28.58 127.01 28.62C123.85 28.69 122.03 30.58 120.91 33.39C117.31 42.39 113.65 51.38 110.01 60.37C107.63 66.24 105.22 72.1 102.9 78C102.47 79.09 101.85 79.29 100.79 79.32C99.66 79.35 99.31 78.82 98.96 77.89C94.36 65.61 89.71 53.34 85.08 41.07C84.87 40.51 84.66 39.96 84.3 39.02C82.47 43.77 80.77 48.14 79.09 52.52C75.85 60.96 72.61 69.4 69.41 77.84C69.04 78.82 68.62 79.34 67.42 79.33C66.26 79.31 65.81 78.9 65.42 77.88C60.14 64.03 54.81 50.2 49.51 36.35C49.36 35.96 49.04 35.59 49.25 35.11C54.51 35.64 58.32 32.05 55.29 25.36L55.31 25.35Z" fill="#2D78A0"/>
</g>
<defs>
<clipPath id="clip0_403_15">
<rect width="166" height="104" fill="white"/>
</clipPath>
</defs>
</svg>
