<?xml version="1.0" encoding="UTF-8"?><svg id="Layer_2" xmlns="http://www.w3.org/2000/svg" viewBox="0 0 166.26 84.5"><defs><style>.cls-1{fill:#2e78a0;}.cls-1,.cls-2{stroke-width:0px;}.cls-2{fill:#2d78a0;}</style></defs><g id="Layer_1-2"><path class="cls-2" d="m0,18.22c.34-.08.35-.38.41-.64C2.27,9.64,10.84,2.63,21.74,3.13c5.53.25,10.56,1.84,14.68,5.67.76.71,1.12.45,1.7-.16,2.8-2.91,5.99-5.09,10.27-4.94,2.77.1,4.68,1.52,5.76,4.02.69,1.58.11,3.59-1.17,4.46-1.37.94-3.5.79-4.76-.43-.59-.57-1.04-1.28-1.52-1.95-1.57-2.16-2.96-2.43-5.23-.96-.46.3-.86.69-1.31,1.01-1.04.73-1.03,1.46-.43,2.61,5.94,11.34.46,24.12-11.75,27.53-3.11.87-6.3,1.15-9.51,1.29-2.43.1-4.86.26-7.24.81-1.24.29-2.45.67-3.56,1.33-1.32.79-2.22,1.85-2.04,3.5.17,1.54,1.31,2.25,2.61,2.69,2.85.97,5.84,1.21,8.82,1.41,6.34.44,12.71.61,18.95,2,7.7,1.72,12.67,7.68,12.9,15.35.09,2.82-.88,5.3-2.27,7.66-1.61,2.74-3.7,5.09-6.11,7.15-1.75,1.5-2.85,1.69-3.71.7-.91-1.04-.56-1.94,1.39-3.44,3.65-2.81,4.89-6.55,4.2-10.99-.58-3.69-2.81-5.97-6.29-7.2-4.71-1.66-9.62-1.97-14.53-2.22-4.59-.23-9.18-.55-13.62-1.8-3.67-1.04-6.57-3.06-7.3-7.08-.66-3.63.6-6.62,3.63-8.81,2.06-1.49,4.45-2.16,6.87-2.72.16-.58-.36-.64-.64-.82C5.46,35.58,1.63,31.42.24,25.38c-.02-.08-.16-.13-.24-.19,0-2.32,0-4.64,0-6.96Zm32.23,4.42c.06-2.37-.18-4.84-.69-7.27-1.13-5.32-5.29-8.95-10.48-9.22-5.44-.27-9.23,2.41-10.84,8.02-1.56,5.39-1.73,10.88-.21,16.31,1.42,5.07,5.65,8.21,10.76,8.22,4.86,0,9.07-3.29,10.55-8.26.74-2.51.97-5.08.92-7.8Z"/><path class="cls-1" d="m149.2,0c.11.1.21.27.34.3,9.02,1.94,14.3,7.64,16.05,16.47,1.56,7.87.6,15.42-4.62,21.94-7.04,8.8-19.5,10.27-28.49,3.44-.74-.56-1.45-1.15-2.18-1.73-.53.45-.3.98-.3,1.44-.02,7.57-.03,15.13,0,22.7,0,1.93.14,3.86.31,5.78.2,2.35,1.82,3.45,5.31,3.54,1.12.03,1.61.3,1.52,1.5-.06.78-.31,1.06-1.09,1.06-6.81-.02-13.62-.02-20.43,0-.99,0-1.03-.52-1.03-1.25,0-.73.02-1.29,1.03-1.25,1.27.05,2.54.06,3.8-.25,1.92-.47,2.98-1.55,3.2-3.49.12-1.04.14-2.09.14-3.14,0-17.28,0-34.57,0-51.85,0-3.57,3.52-6.17,6.99-5.19.92.26.55.98.56,1.49.03,7.73.05,15.46-.01,23.19-.01,1.39.42,2.41,1.37,3.37,3.04,3.08,6.43,5.39,10.98,5.41,6.44.02,11.82-4.21,12.94-10.57,1.13-6.45,1.15-13.01.13-19.46-1.31-8.34-10.46-12.6-18.38-8.86-2.35,1.11-4.53,2.5-6.52,4.23-.88-3.23-.54-4,2.32-5.49C135.92,1.86,138.88.87,141.89,0,144.32,0,146.76,0,149.2,0Z"/><path class="cls-2" d="m55.31,5.35c2.86,0,5.67.03,8.47-.02,1.05-.02.94.61.98,1.3.05.81-.15,1.22-1.08,1.2-1.1-.02-2.22,0-3.31.19-2.53.43-4.04,3.12-2.99,5.36,4.54,9.64,7.8,19.78,11.74,29.65.4,1,.79,2.02,1.34,3.45.76-1.9,1.36-3.39,1.95-4.9,3.44-8.83,6.86-17.67,10.31-26.5.59-1.51.53-3.05.19-4.55-.37-1.67-1.68-2.37-3.27-2.61-.76-.12-1.54-.27-2.3-.25-1.02.02-1.13-.5-1.14-1.34,0-.89.34-1.11,1.18-1.11,6.75.03,13.51.04,20.26,0,1.08,0,1.08.52,1.12,1.32.04.91-.32,1.15-1.16,1.09-1.22-.08-2.44.07-3.62.36-2.07.51-3.4,2.92-2.66,4.9,4.06,10.84,8.14,21.66,12.22,32.49.09.24.21.46.47,1.06,1.23-3.05,2.34-5.77,3.44-8.5,3-7.41,6-14.81,9-22.22.19-.46.34-.93.52-1.39,1.48-3.66,1.01-5.4-3.85-5.97-1.35-.16-1.56-.62-1.58-1.81-.02-1.42.9-1.11,1.67-1.11,4.54-.01,9.08,0,13.62,0,.79,0,1.62-.13,1.48,1.12-.1.9.4,2.02-1.3,2.06-3.16.07-4.98,1.96-6.1,4.77-3.6,9-7.26,17.99-10.9,26.98-2.38,5.87-4.79,11.73-7.11,17.63-.43,1.09-1.05,1.29-2.11,1.32-1.13.03-1.48-.5-1.83-1.43-4.6-12.28-9.25-24.55-13.88-36.82-.21-.56-.42-1.11-.78-2.05-1.83,4.75-3.53,9.12-5.21,13.5-3.24,8.44-6.48,16.88-9.68,25.32-.37.98-.79,1.5-1.99,1.49-1.16-.02-1.61-.43-2-1.45-5.28-13.85-10.61-27.68-15.91-41.53-.15-.39-.47-.76-.26-1.24,5.26.53,9.07-3.06,6.04-9.75Z"/></g></svg>