<svg width="10" height="14" viewBox="0 0 10 14" fill="none" xmlns="http://www.w3.org/2000/svg">
<path fill-rule="evenodd" clip-rule="evenodd" d="M0.46875 0C0.59307 0 0.712299 0.049386 0.800206 0.137294C0.888114 0.225201 0.9375 0.34443 0.9375 0.46875V1.14688L1.92125 0.95C3.04207 0.725999 4.20384 0.832838 5.265 1.2575L5.39187 1.30812C6.27608 1.66178 7.24924 1.72782 8.17312 1.49687C8.35282 1.45195 8.54039 1.44857 8.72159 1.48699C8.90278 1.52542 9.07284 1.60464 9.21883 1.71864C9.36482 1.83263 9.4829 1.97841 9.56411 2.14488C9.64532 2.31135 9.68752 2.49415 9.6875 2.67938V7.28375C9.6875 7.90125 9.26688 8.44 8.6675 8.59L8.53375 8.62312C7.33208 8.92354 6.06629 8.8376 4.91625 8.3775C4.02403 8.02065 3.04729 7.93096 2.105 8.11938L0.9375 8.35312V12.9688C0.9375 13.0931 0.888114 13.2123 0.800206 13.3002C0.712299 13.3881 0.59307 13.4375 0.46875 13.4375C0.34443 13.4375 0.225201 13.3881 0.137294 13.3002C0.049386 13.2123 0 13.0931 0 12.9688V0.46875C0 0.34443 0.049386 0.225201 0.137294 0.137294C0.225201 0.049386 0.34443 0 0.46875 0ZM0.9375 7.39688L1.92125 7.2C3.04207 6.97604 4.20383 7.08287 5.265 7.5075C6.23188 7.89415 7.29602 7.96632 8.30625 7.71375L8.44062 7.68C8.52897 7.65786 8.60738 7.60685 8.66343 7.53506C8.71948 7.46327 8.74995 7.37483 8.75 7.28375V2.67938C8.75004 2.63662 8.74033 2.59442 8.72161 2.55598C8.70289 2.51754 8.67565 2.48388 8.64197 2.45755C8.60829 2.43121 8.56904 2.41291 8.52722 2.40402C8.4854 2.39513 8.44211 2.39589 8.40062 2.40625C7.28557 2.68511 6.11099 2.60551 5.04375 2.17875L4.91625 2.1275C4.02403 1.77065 3.04729 1.68096 2.105 1.86938L0.9375 2.10312V7.39688Z" fill="#47D1A3"/>
</svg>
